#tb 0: 1/25
0,          0,          0,        1,   304128, 0x341f231e
0,          1,          1,        1,   304128, 0x6230ca2e
0,          2,          2,        1,   304128, 0x364e7de7
0,          3,          3,        1,   304128, 0xd8305bba
0,          4,          4,        1,   304128, 0xdb0a160d
